<svg width="144" height="144" xmlns="http://www.w3.org/2000/svg" xmlns:xlink="http://www.w3.org/1999/xlink" xml:space="preserve" overflow="hidden"><g><path d="M60.3 97.95C58.2 97.95 56.25 97.5 54.3 96.75 51.15 95.55 48.45 93.3 46.5 90.45 46.35 90.45 46.05 90.3 45.9 90.3L27.9 125.7 43.05 122.25 50.7 136.5 69.45 99.9C67.35 99.6 65.25 98.7 63.45 97.65 62.4 97.8 61.35 97.95 60.3 97.95Z"/><path d="M91.65 96C89.55 96.9 87.3 97.35 85.05 97.35 83.85 97.35 82.8 97.2 81.6 97.05 79.35 98.55 76.8 99.6 74.1 99.9L93.9 135.6 101.7 122.85 117 125.4 97.95 91.2C96.3 93.3 94.2 94.95 91.65 96Z"/><path d="M71.55 77.4C57.3 77.4 45.6 65.85 45.6 51.45 45.6 37.05 57.3 25.5 71.55 25.5 85.8 25.5 97.5 37.05 97.5 51.45 97.5 65.85 85.8 77.4 71.55 77.4ZM115.8 51.45C115.8 48.15 114.45 45.15 112.2 43.05 113.4 40.2 113.55 36.9 112.2 33.9 111 31.2 108.9 29.1 106.35 28.05 106.2 25.35 105.15 22.65 103.05 20.55 100.65 18.15 97.65 17.1 94.5 17.25 93.45 14.4 91.2 12 88.05 10.8 85.35 9.75 82.35 9.75 79.8 10.8 77.7 9 75.15 7.8 72.15 7.8 68.85 7.8 65.85 9.15 63.75 11.4 60.9 10.2 57.6 10.05 54.6 11.4 51.9 12.6 49.8 14.7 48.75 17.25 46.05 17.4 43.35 18.45 41.25 20.55 38.85 22.95 37.8 25.95 37.95 29.1 35.1 30.15 32.7 32.4 31.5 35.55 30.45 38.25 30.45 41.25 31.5 43.8 29.7 45.9 28.5 48.45 28.5 51.45 28.5 54.75 29.85 57.75 32.1 59.85 30.9 62.7 30.75 66 32.1 69 33.3 71.7 35.4 73.8 37.95 74.85 38.1 77.55 39.15 80.25 41.25 82.35 43.65 84.75 46.65 85.8 49.8 85.65 50.85 88.5 53.1 90.9 56.25 92.1 58.95 93.15 61.95 93.15 64.5 92.1 66.6 93.9 69.15 95.1 72.15 95.1 75.45 95.1 78.45 93.75 80.55 91.5 83.4 92.7 86.7 92.85 89.7 91.5 92.4 90.3 94.5 88.2 95.55 85.65 98.25 85.5 100.95 84.45 103.05 82.35 105.45 79.95 106.5 76.95 106.35 73.8 109.2 72.75 111.6 70.5 112.8 67.35 113.85 64.65 113.85 61.65 112.8 59.1 114.6 57.15 115.8 54.45 115.8 51.45Z"/></g></svg>